<svg xmlns="http://www.w3.org/2000/svg" xmlns:xlink="http://www.w3.org/1999/xlink" width="4000" zoomAndPan="magnify" viewBox="0 0 3000 4499.999944" height="6000" preserveAspectRatio="xMidYMid meet" version="1.0"><defs><filter x="0%" y="0%" width="100%" height="100%" id="937fbbfed9"><feColorMatrix values="0 0 0 0 1 0 0 0 0 1 0 0 0 0 1 0 0 0 1 0" color-interpolation-filters="sRGB"/></filter><clipPath id="6f9e606790"><path d="M 0 2102 L 555 2102 L 555 2731.199219 L 0 2731.199219 Z M 0 2102 " clip-rule="nonzero"/></clipPath><mask id="08a9fece06"><g filter="url(#937fbbfed9)"><rect x="-660" width="4320" fill="#000000" y="-1025.999988" height="6479.999919" fill-opacity="0.14"/></g></mask><clipPath id="1b11d8249c"><path d="M 0 0.445312 L 554 0.445312 L 554 629.023438 L 0 629.023438 Z M 0 0.445312 " clip-rule="nonzero"/></clipPath><clipPath id="a44f540c1f"><path d="M -6.78125 0.445312 L 412.128906 0.445312 C 449.523438 0.445312 485.386719 15.300781 511.832031 41.742188 C 538.273438 68.183594 553.128906 104.046875 553.128906 141.445312 L 553.128906 488.023438 C 553.128906 525.417969 538.273438 561.28125 511.832031 587.726562 C 485.386719 614.167969 449.523438 629.023438 412.128906 629.023438 L -6.78125 629.023438 C -44.175781 629.023438 -80.042969 614.167969 -106.484375 587.726562 C -132.925781 561.28125 -147.78125 525.417969 -147.78125 488.023438 L -147.78125 141.445312 C -147.78125 104.046875 -132.925781 68.183594 -106.484375 41.742188 C -80.042969 15.300781 -44.175781 0.445312 -6.78125 0.445312 Z M -6.78125 0.445312 " clip-rule="nonzero"/></clipPath><clipPath id="bb5a38c4c7"><path d="M 0 0.445312 L 553 0.445312 L 553 629.023438 L 0 629.023438 Z M 0 0.445312 " clip-rule="nonzero"/></clipPath><clipPath id="b938872598"><path d="M -6.78125 0.445312 L 412.128906 0.445312 C 449.523438 0.445312 485.386719 15.300781 511.832031 41.742188 C 538.273438 68.183594 553.128906 104.046875 553.128906 141.445312 L 553.128906 488.023438 C 553.128906 525.417969 538.273438 561.28125 511.832031 587.726562 C 485.386719 614.167969 449.523438 629.023438 412.128906 629.023438 L -6.78125 629.023438 C -44.175781 629.023438 -80.042969 614.167969 -106.484375 587.726562 C -132.925781 561.28125 -147.78125 525.417969 -147.78125 488.023438 L -147.78125 141.445312 C -147.78125 104.046875 -132.925781 68.183594 -106.484375 41.742188 C -80.042969 15.300781 -44.175781 0.445312 -6.78125 0.445312 Z M -6.78125 0.445312 " clip-rule="nonzero"/></clipPath><clipPath id="0461380172"><rect x="0" width="554" y="0" height="630"/></clipPath><clipPath id="46a783b90c"><rect x="0" width="555" y="0" height="630"/></clipPath><mask id="f8ff8f4f28"><g filter="url(#937fbbfed9)"><rect x="-660" width="4320" fill="#000000" y="-1025.999988" height="6479.999919" fill-opacity="0.14"/></g></mask><clipPath id="aecb7628cc"><path d="M 0.0625 0.359375 L 701 0.359375 L 701 628.9375 L 0.0625 628.9375 Z M 0.0625 0.359375 " clip-rule="nonzero"/></clipPath><clipPath id="702f58d3dc"><path d="M 141.0625 0.359375 L 559.972656 0.359375 C 597.367188 0.359375 633.234375 15.214844 659.675781 41.65625 C 686.117188 68.097656 700.972656 103.960938 700.972656 141.359375 L 700.972656 487.9375 C 700.972656 525.332031 686.117188 561.195312 659.675781 587.640625 C 633.234375 614.082031 597.367188 628.9375 559.972656 628.9375 L 141.0625 628.9375 C 103.667969 628.9375 67.804688 614.082031 41.359375 587.640625 C 14.917969 561.195312 0.0625 525.332031 0.0625 487.9375 L 0.0625 141.359375 C 0.0625 103.960938 14.917969 68.097656 41.359375 41.65625 C 67.804688 15.214844 103.667969 0.359375 141.0625 0.359375 Z M 141.0625 0.359375 " clip-rule="nonzero"/></clipPath><clipPath id="d651a4673e"><path d="M 0.0625 0.359375 L 700 0.359375 L 700 628.9375 L 0.0625 628.9375 Z M 0.0625 0.359375 " clip-rule="nonzero"/></clipPath><clipPath id="110fcac4fe"><path d="M 141.0625 0.359375 L 559.972656 0.359375 C 597.367188 0.359375 633.234375 15.214844 659.675781 41.65625 C 686.117188 68.097656 700.972656 103.960938 700.972656 141.359375 L 700.972656 487.9375 C 700.972656 525.332031 686.117188 561.195312 659.675781 587.640625 C 633.234375 614.082031 597.367188 628.9375 559.972656 628.9375 L 141.0625 628.9375 C 103.667969 628.9375 67.804688 614.082031 41.359375 587.640625 C 14.917969 561.195312 0.0625 525.332031 0.0625 487.9375 L 0.0625 141.359375 C 0.0625 103.960938 14.917969 68.097656 41.359375 41.65625 C 67.804688 15.214844 103.667969 0.359375 141.0625 0.359375 Z M 141.0625 0.359375 " clip-rule="nonzero"/></clipPath><clipPath id="0048a41b7d"><rect x="0" width="701" y="0" height="629"/></clipPath><clipPath id="eb42481586"><rect x="0" width="703" y="0" height="630"/></clipPath><mask id="639dee3deb"><g filter="url(#937fbbfed9)"><rect x="-660" width="4320" fill="#000000" y="-1025.999988" height="6479.999919" fill-opacity="0.14"/></g></mask><clipPath id="645df30871"><path d="M 0.257812 0.796875 L 702 0.796875 L 702 629.375 L 0.257812 629.375 Z M 0.257812 0.796875 " clip-rule="nonzero"/></clipPath><clipPath id="59e1587632"><path d="M 141.257812 0.796875 L 560.167969 0.796875 C 597.5625 0.796875 633.425781 15.652344 659.867188 42.09375 C 686.3125 68.535156 701.167969 104.402344 701.167969 141.796875 L 701.167969 488.375 C 701.167969 525.769531 686.3125 561.636719 659.867188 588.078125 C 633.425781 614.519531 597.5625 629.375 560.167969 629.375 L 141.257812 629.375 C 103.859375 629.375 67.996094 614.519531 41.554688 588.078125 C 15.113281 561.636719 0.257812 525.769531 0.257812 488.375 L 0.257812 141.796875 C 0.257812 104.402344 15.113281 68.535156 41.554688 42.09375 C 67.996094 15.652344 103.859375 0.796875 141.257812 0.796875 Z M 141.257812 0.796875 " clip-rule="nonzero"/></clipPath><clipPath id="1d36ebdbca"><path d="M 0.257812 0.796875 L 701 0.796875 L 701 629.375 L 0.257812 629.375 Z M 0.257812 0.796875 " clip-rule="nonzero"/></clipPath><clipPath id="743da084e7"><path d="M 141.257812 0.796875 L 560.167969 0.796875 C 597.5625 0.796875 633.425781 15.652344 659.867188 42.09375 C 686.3125 68.535156 701.167969 104.402344 701.167969 141.796875 L 701.167969 488.375 C 701.167969 525.769531 686.3125 561.636719 659.867188 588.078125 C 633.425781 614.519531 597.5625 629.375 560.167969 629.375 L 141.257812 629.375 C 103.859375 629.375 67.996094 614.519531 41.554688 588.078125 C 15.113281 561.636719 0.257812 525.769531 0.257812 488.375 L 0.257812 141.796875 C 0.257812 104.402344 15.113281 68.535156 41.554688 42.09375 C 67.996094 15.652344 103.859375 0.796875 141.257812 0.796875 Z M 141.257812 0.796875 " clip-rule="nonzero"/></clipPath><clipPath id="aa8b528740"><rect x="0" width="702" y="0" height="630"/></clipPath><clipPath id="0a6af25370"><rect x="0" width="703" y="0" height="630"/></clipPath><mask id="8c89cd09dd"><g filter="url(#937fbbfed9)"><rect x="-660" width="4320" fill="#000000" y="-1025.999988" height="6479.999919" fill-opacity="0.14"/></g></mask><clipPath id="34f5afb53b"><path d="M 0.449219 0.234375 L 702 0.234375 L 702 628.8125 L 0.449219 628.8125 Z M 0.449219 0.234375 " clip-rule="nonzero"/></clipPath><clipPath id="e54aa17607"><path d="M 141.449219 0.234375 L 560.359375 0.234375 C 597.753906 0.234375 633.617188 15.089844 660.0625 41.53125 C 686.503906 67.976562 701.359375 103.839844 701.359375 141.234375 L 701.359375 487.8125 C 701.359375 525.207031 686.503906 561.074219 660.0625 587.515625 C 633.617188 613.957031 597.753906 628.8125 560.359375 628.8125 L 141.449219 628.8125 C 104.054688 628.8125 68.191406 613.957031 41.746094 587.515625 C 15.304688 561.074219 0.449219 525.207031 0.449219 487.8125 L 0.449219 141.234375 C 0.449219 103.839844 15.304688 67.976562 41.746094 41.53125 C 68.191406 15.089844 104.054688 0.234375 141.449219 0.234375 Z M 141.449219 0.234375 " clip-rule="nonzero"/></clipPath><clipPath id="f503224b49"><path d="M 0.449219 0.234375 L 701 0.234375 L 701 628.8125 L 0.449219 628.8125 Z M 0.449219 0.234375 " clip-rule="nonzero"/></clipPath><clipPath id="7d44f2c796"><path d="M 141.449219 0.234375 L 560.359375 0.234375 C 597.753906 0.234375 633.617188 15.089844 660.0625 41.53125 C 686.503906 67.976562 701.359375 103.839844 701.359375 141.234375 L 701.359375 487.8125 C 701.359375 525.207031 686.503906 561.074219 660.0625 587.515625 C 633.617188 613.957031 597.753906 628.8125 560.359375 628.8125 L 141.449219 628.8125 C 104.054688 628.8125 68.191406 613.957031 41.746094 587.515625 C 15.304688 561.074219 0.449219 525.207031 0.449219 487.8125 L 0.449219 141.234375 C 0.449219 103.839844 15.304688 67.976562 41.746094 41.53125 C 68.191406 15.089844 104.054688 0.234375 141.449219 0.234375 Z M 141.449219 0.234375 " clip-rule="nonzero"/></clipPath><clipPath id="db4fdec552"><rect x="0" width="702" y="0" height="629"/></clipPath><clipPath id="325fe79117"><rect x="0" width="703" y="0" height="629"/></clipPath><clipPath id="cd7330eee6"><path d="M 2424 0.480469 L 3000 0.480469 L 3000 630 L 2424 630 Z M 2424 0.480469 " clip-rule="nonzero"/></clipPath><mask id="fbc10ab98c"><g filter="url(#937fbbfed9)"><rect x="-660" width="4320" fill="#000000" y="-1025.999988" height="6479.999919" fill-opacity="0.14"/></g></mask><clipPath id="da71b152f0"><path d="M 0.644531 0.671875 L 576 0.671875 L 576 629.25 L 0.644531 629.25 Z M 0.644531 0.671875 " clip-rule="nonzero"/></clipPath><clipPath id="500bcf5590"><path d="M 141.644531 0.671875 L 560.554688 0.671875 C 597.949219 0.671875 633.8125 15.527344 660.253906 41.96875 C 686.699219 68.414062 701.550781 104.277344 701.550781 141.671875 L 701.550781 488.25 C 701.550781 525.648438 686.699219 561.511719 660.253906 587.953125 C 633.8125 614.394531 597.949219 629.25 560.554688 629.25 L 141.644531 629.25 C 104.246094 629.25 68.382812 614.394531 41.941406 587.953125 C 15.5 561.511719 0.644531 525.648438 0.644531 488.25 L 0.644531 141.671875 C 0.644531 104.277344 15.5 68.414062 41.941406 41.96875 C 68.382812 15.527344 104.246094 0.671875 141.644531 0.671875 Z M 141.644531 0.671875 " clip-rule="nonzero"/></clipPath><clipPath id="dbd4530328"><path d="M 0.644531 0.671875 L 576 0.671875 L 576 629.25 L 0.644531 629.25 Z M 0.644531 0.671875 " clip-rule="nonzero"/></clipPath><clipPath id="0afecefa11"><path d="M 141.644531 0.671875 L 560.554688 0.671875 C 597.949219 0.671875 633.8125 15.527344 660.253906 41.96875 C 686.699219 68.414062 701.550781 104.277344 701.550781 141.671875 L 701.550781 488.25 C 701.550781 525.648438 686.699219 561.511719 660.253906 587.953125 C 633.8125 614.394531 597.949219 629.25 560.554688 629.25 L 141.644531 629.25 C 104.246094 629.25 68.382812 614.394531 41.941406 587.953125 C 15.5 561.511719 0.644531 525.648438 0.644531 488.25 L 0.644531 141.671875 C 0.644531 104.277344 15.5 68.414062 41.941406 41.96875 C 68.382812 15.527344 104.246094 0.671875 141.644531 0.671875 Z M 141.644531 0.671875 " clip-rule="nonzero"/></clipPath><clipPath id="2307b43304"><rect x="0" width="576" y="0" height="630"/></clipPath><clipPath id="75a7f26a57"><rect x="0" width="576" y="0" height="630"/></clipPath><clipPath id="bb2e176213"><rect x="0" width="3000" y="0" height="2732"/></clipPath></defs><g transform="matrix(1, 0, 0, 1, 0, 36)"><g clip-path="url(#bb2e176213)"><g clip-path="url(#6f9e606790)"><g mask="url(#08a9fece06)"><g transform="matrix(1, 0, 0, 1, 0, 2102)"><g clip-path="url(#46a783b90c)"><g clip-path="url(#1b11d8249c)"><g clip-path="url(#a44f540c1f)"><g transform="matrix(1, 0, 0, 1, 0, 0.000000000000454747)"><g clip-path="url(#0461380172)"><g clip-path="url(#bb5a38c4c7)"><g clip-path="url(#b938872598)"><path fill="#4b4b4c" d="M -147.78125 0.445312 L 552.003906 0.445312 L 552.003906 629.023438 L -147.78125 629.023438 Z M -147.78125 0.445312 " fill-opacity="1" fill-rule="nonzero"/></g></g></g></g></g></g></g></g></g></g><g mask="url(#f8ff8f4f28)"><g transform="matrix(1, 0, 0, 1, 498, 1577)"><g clip-path="url(#eb42481586)"><g clip-path="url(#aecb7628cc)"><g clip-path="url(#702f58d3dc)"><g transform="matrix(1, 0, 0, 1, -0.000000000000056843, 0.000000000000227374)"><g clip-path="url(#0048a41b7d)"><g clip-path="url(#d651a4673e)"><g clip-path="url(#110fcac4fe)"><path fill="#4b4b4c" d="M 0.0625 0.359375 L 699.847656 0.359375 L 699.847656 628.9375 L 0.0625 628.9375 Z M 0.0625 0.359375 " fill-opacity="1" fill-rule="nonzero"/></g></g></g></g></g></g></g></g></g><g mask="url(#639dee3deb)"><g transform="matrix(1, 0, 0, 1, 1140, 1051)"><g clip-path="url(#0a6af25370)"><g clip-path="url(#645df30871)"><g clip-path="url(#59e1587632)"><g transform="matrix(1, 0, 0, 1, -0.000000000000227374, 0.000000000000227374)"><g clip-path="url(#aa8b528740)"><g clip-path="url(#1d36ebdbca)"><g clip-path="url(#743da084e7)"><path fill="#4b4b4c" d="M 0.257812 0.796875 L 700.042969 0.796875 L 700.042969 629.375 L 0.257812 629.375 Z M 0.257812 0.796875 " fill-opacity="1" fill-rule="nonzero"/></g></g></g></g></g></g></g></g></g><g mask="url(#8c89cd09dd)"><g transform="matrix(1, 0, 0, 1, 1782, 526)"><g clip-path="url(#325fe79117)"><g clip-path="url(#34f5afb53b)"><g clip-path="url(#e54aa17607)"><g transform="matrix(1, 0, 0, 1, 0, 0.000000000000341061)"><g clip-path="url(#db4fdec552)"><g clip-path="url(#f503224b49)"><g clip-path="url(#7d44f2c796)"><path fill="#4b4b4c" d="M 0.449219 0.234375 L 700.234375 0.234375 L 700.234375 628.8125 L 0.449219 628.8125 Z M 0.449219 0.234375 " fill-opacity="1" fill-rule="nonzero"/></g></g></g></g></g></g></g></g></g><g clip-path="url(#cd7330eee6)"><g mask="url(#fbc10ab98c)"><g transform="matrix(1, 0, 0, 1, 2424, 0.000000000000369482)"><g clip-path="url(#75a7f26a57)"><g clip-path="url(#da71b152f0)"><g clip-path="url(#500bcf5590)"><g transform="matrix(1, 0, 0, 1, 0, 0.000000000000369482)"><g clip-path="url(#2307b43304)"><g clip-path="url(#dbd4530328)"><g clip-path="url(#0afecefa11)"><path fill="#4b4b4c" d="M 0.644531 0.671875 L 700.429688 0.671875 L 700.429688 629.25 L 0.644531 629.25 Z M 0.644531 0.671875 " fill-opacity="1" fill-rule="nonzero"/></g></g></g></g></g></g></g></g></g></g></g></g></svg>