<svg xmlns="http://www.w3.org/2000/svg" xmlns:xlink="http://www.w3.org/1999/xlink" viewBox="0 0 48 96" fill="none" aria-hidden="true">
  <!-- Single laurel wing — mirrored in CSS for the right side -->
  <defs>
    <path id="leaf" d="M0 0C2.2-4.8 6.4-8.2 11-9.2C7.6-4.2 5.8.6 6.2 5.6C2.8 3.2.6 1.4 0 0Z"/>
  </defs>
  <g fill="#fff" fill-opacity=".92">
    <use xlink:href="#leaf" transform="translate(16 78) rotate(-18)"/>
    <use xlink:href="#leaf" transform="translate(12 68) rotate(-8)"/>
    <use xlink:href="#leaf" transform="translate(10 57) rotate(2)"/>
    <use xlink:href="#leaf" transform="translate(9 46) rotate(12)"/>
    <use xlink:href="#leaf" transform="translate(10 35) rotate(22)"/>
    <use xlink:href="#leaf" transform="translate(13 25) rotate(34)"/>
    <use xlink:href="#leaf" transform="translate(18 16) rotate(48)"/>
    <use xlink:href="#leaf" transform="translate(25 9) rotate(62)"/>
    <use xlink:href="#leaf" transform="translate(34 5) rotate(76)"/>
  </g>
  <g fill="#fff" fill-opacity=".5">
    <use xlink:href="#leaf" transform="translate(24 74) rotate(-12) scale(.78)"/>
    <use xlink:href="#leaf" transform="translate(20 63) rotate(-2) scale(.78)"/>
    <use xlink:href="#leaf" transform="translate(18 52) rotate(8) scale(.78)"/>
    <use xlink:href="#leaf" transform="translate(17 41) rotate(18) scale(.78)"/>
    <use xlink:href="#leaf" transform="translate(19 30) rotate(30) scale(.78)"/>
    <use xlink:href="#leaf" transform="translate(23 21) rotate(42) scale(.78)"/>
    <use xlink:href="#leaf" transform="translate(30 13) rotate(56) scale(.78)"/>
  </g>
  <path d="M36 82C26 70 20 54 20 38C20 24 26 12 38 4" stroke="#fff" stroke-opacity=".3" stroke-width="1.2" stroke-linecap="round"/>
</svg>
